<?xml version="1.0" encoding="UTF-8" standalone="no"?>
<svg xmlns:dc="http://purl.org/dc/elements/1.1/" xmlns:cc="http://creativecommons.org/ns#"
   xmlns:rdf="http://www.w3.org/1999/02/22-rdf-syntax-ns#" xmlns:svg="http://www.w3.org/2000/svg"
   xmlns="http://www.w3.org/2000/svg" id="svg8" version="1.1" viewBox="0 0 1e-05 1e-05" height="578" width="203">
   <defs id="defs2">
      <rect id="rect1200" height="2.8971478e-06" width="1.7226284e-06" y="-1.1507191e-05" x="-6.2641032e-06" />
      <rect id="rect1194" height="3.2230664e-06" width="8.6775009e-07" y="-9.2315277e-06" x="0" />
      <marker style="overflow:visible;" id="Arrow1Lend" refX="0.0" refY="0.0" orient="auto">
         <path transform="scale(0.8) rotate(180) translate(12.5,0)"
            style="fill-rule:evenodd;stroke:#000000;stroke-width:1.0pt;"
            d="M 0.0,0.0 L 5.0,-5.0 L -12.5,0.0 L 5.0,5.0 L 0.0,0.0 z " id="path915" />
      </marker>
      <marker style="overflow:visible" id="Arrow1Lstart" refX="0.0" refY="0.0" orient="auto">
         <path transform="scale(0.8) translate(12.5,0)" style="fill-rule:evenodd;stroke:#000000;stroke-width:1.0pt"
            d="M 0.0,0.0 L 5.0,-5.0 L -12.5,0.0 L 5.0,5.0 L 0.0,0.0 z " id="path912" />
      </marker>
   </defs>
   <metadata id="metadata5">
      <rdf:RDF>
         <cc:Work rdf:about="">
            <dc:format>image/svg+xml</dc:format>
            <dc:type rdf:resource="http://purl.org/dc/dcmitype/StillImage" />
            <dc:title></dc:title>
         </cc:Work>
      </rdf:RDF>
   </metadata>
   <g style="display:inline" id="layer1">
      <rect y="-9.2315277e-06" x="0" height="4.4326665e-18" width="7.7530667e-06" id="rect886"
         style="opacity:1;fill:#ffffff;fill-opacity:1;stroke:none;stroke-miterlimit:2;stroke-dasharray:none" />
      <rect ry="5.610201e-08" rx="2.4399544e-08" y="-6.0084612e-06" x="8.6775009e-07" height="1.4025503e-06"
         width="1.2504768e-06" id="rect910"
         style="opacity:1;fill:#ffffff;fill-opacity:1;stroke:none;stroke-width:0;stroke-miterlimit:2;stroke-dasharray:none" />
      <rect ry="1.9704433e-07" rx="1.9704433e-07" y="-8.9408859e-06" x="2.1182268e-06" height="4.3349755e-06"
         width="7.4876848e-06" id="rect1190"
         style="opacity:1;fill:#ffffff;fill-opacity:1;stroke:#dadce0;stroke-width:0.00000015;stroke-miterlimit:2;stroke-dasharray:none;stroke-opacity:1" />
      <text
         style="font-style:normal;font-weight:normal;line-height:1.25;font-family:sans-serif;white-space:pre;shape-inside:url(#rect1194);fill:#000000;fill-opacity:1;stroke:none;"
         id="text1192" xml:space="preserve" />
      <text
         style="font-style:normal;font-weight:normal;font-size:1.97unknown;line-height:1.25;font-family:sans-serif;white-space:pre;shape-inside:url(#rect1200);fill:#000000;fill-opacity:1;stroke:none;"
         id="text1198" xml:space="preserve" />
      <text id="text1240" y="7.1428576e-07" x="1.8719212e-06"
         style="font-style:normal;font-weight:normal;line-height:1.25;font-family:sans-serif;fill:#000000;fill-opacity:1;stroke:none"
         xml:space="preserve">
         <tspan y="7.1428576e-07" x="1.8719212e-06" id="tspan1238"></tspan>
      </text>
   </g>
</svg>